<mxfile host="app.diagrams.net" modified="2020-09-14T02:45:35.077Z" agent="5.0 (Macintosh; Intel Mac OS X 10_15_6) AppleWebKit/537.36 (KHTML, like Gecko) Chrome/84.0.4147.135 Safari/537.36" etag="ucSiAlIfUyUG3kR_1y2k" version="13.6.2" type="github" pages="4">
  <diagram id="6a731a19-8d31-9384-78a2-239565b7b9f0" name="Page-1">
    <mxGraphModel dx="1186" dy="796" grid="1" gridSize="10" guides="1" tooltips="1" connect="1" arrows="1" fold="1" page="1" pageScale="1" pageWidth="1169" pageHeight="827" background="#7EA6E0" math="0" shadow="0">
      <root>
        <mxCell id="0" />
        <mxCell id="1" parent="0" />
        <mxCell id="2019" value="" style="rounded=1;whiteSpace=wrap;html=1;dashed=1;strokeColor=none;strokeWidth=2;fillColor=#E6E6E6;fontFamily=Verdana;fontSize=12;fontColor=#00BEF2" parent="1" vertex="1">
          <mxGeometry x="40" y="120" width="165" height="670" as="geometry" />
        </mxCell>
        <mxCell id="2020" value="" style="rounded=1;whiteSpace=wrap;html=1;dashed=1;strokeColor=none;strokeWidth=2;fillColor=#E6E6E6;fontFamily=Verdana;fontSize=12;fontColor=#00BEF2" parent="1" vertex="1">
          <mxGeometry x="220" y="120" width="165" height="670" as="geometry" />
        </mxCell>
        <mxCell id="2021" value="" style="rounded=1;whiteSpace=wrap;html=1;dashed=1;strokeColor=none;strokeWidth=2;fillColor=#E6E6E6;fontFamily=Verdana;fontSize=12;fontColor=#00BEF2" parent="1" vertex="1">
          <mxGeometry x="400" y="120" width="165" height="670" as="geometry" />
        </mxCell>
        <mxCell id="2022" value="" style="rounded=1;whiteSpace=wrap;html=1;dashed=1;strokeColor=none;strokeWidth=2;fillColor=#E6E6E6;fontFamily=Verdana;fontSize=12;fontColor=#00BEF2" parent="1" vertex="1">
          <mxGeometry x="580" y="120" width="165" height="670" as="geometry" />
        </mxCell>
        <mxCell id="2023" value="" style="rounded=1;whiteSpace=wrap;html=1;dashed=1;strokeColor=none;strokeWidth=2;fillColor=#E6E6E6;fontFamily=Verdana;fontSize=12;fontColor=#00BEF2" parent="1" vertex="1">
          <mxGeometry x="760" y="120" width="165" height="670" as="geometry" />
        </mxCell>
        <mxCell id="2025" value="管理" style="whiteSpace=wrap;html=1;dashed=1;strokeColor=none;strokeWidth=2;fillColor=#3399FF;fontFamily=Helvetica;fontSize=18;fontColor=#FFFFFF;fontStyle=1" parent="1" vertex="1">
          <mxGeometry x="40" y="120" width="165" height="60" as="geometry" />
        </mxCell>
        <mxCell id="2026" value="测试" style="whiteSpace=wrap;html=1;dashed=1;strokeColor=none;strokeWidth=2;fillColor=#3399FF;fontFamily=Helvetica;fontSize=18;fontColor=#FFFFFF;fontStyle=1" parent="1" vertex="1">
          <mxGeometry x="220" y="120" width="165" height="60" as="geometry" />
        </mxCell>
        <mxCell id="2027" value="发起审核" style="whiteSpace=wrap;html=1;dashed=1;strokeColor=none;strokeWidth=2;fillColor=#3399FF;fontFamily=Helvetica;fontSize=18;fontColor=#FFFFFF;fontStyle=1" parent="1" vertex="1">
          <mxGeometry x="400" y="120" width="165" height="60" as="geometry" />
        </mxCell>
        <mxCell id="2028" value="审核" style="whiteSpace=wrap;html=1;dashed=1;strokeColor=none;strokeWidth=2;fillColor=#3399FF;fontFamily=Helvetica;fontSize=18;fontColor=#FFFFFF;fontStyle=1" parent="1" vertex="1">
          <mxGeometry x="580" y="120" width="165" height="60" as="geometry" />
        </mxCell>
        <mxCell id="2029" value="正式发布" style="whiteSpace=wrap;html=1;dashed=1;strokeColor=none;strokeWidth=2;fillColor=#3399FF;fontFamily=Helvetica;fontSize=18;fontColor=#FFFFFF;fontStyle=1" parent="1" vertex="1">
          <mxGeometry x="760" y="120" width="165" height="60" as="geometry" />
        </mxCell>
        <mxCell id="2039" value="Devices" style="verticalLabelPosition=bottom;html=1;verticalAlign=top;strokeColor=none;fillColor=#3399FF;shape=mxgraph.azure.laptop;dashed=1;fontFamily=Helvetica;fontSize=14;fontColor=#004C99" parent="1" vertex="1">
          <mxGeometry x="96" y="451" width="50" height="30" as="geometry" />
        </mxCell>
        <mxCell id="2040" value="Applications" style="verticalLabelPosition=bottom;html=1;verticalAlign=top;strokeColor=none;fillColor=#3399FF;shape=mxgraph.azure.mobile_services;dashed=1;fontFamily=Helvetica;fontSize=14;fontColor=#004C99" parent="1" vertex="1">
          <mxGeometry x="107" y="250" width="32.5" height="50" as="geometry" />
        </mxCell>
        <mxCell id="2041" value="Social" style="verticalLabelPosition=bottom;html=1;verticalAlign=top;strokeColor=none;fillColor=#3399FF;shape=mxgraph.azure.user;dashed=1;fontSize=14;fontColor=#004C99" parent="1" vertex="1">
          <mxGeometry x="92" y="680" width="47.5" height="50" as="geometry" />
        </mxCell>
        <mxCell id="2045" value="Azure Website" style="verticalLabelPosition=bottom;html=1;verticalAlign=top;strokeColor=none;fillColor=#3399FF;shape=mxgraph.azure.azure_website;dashed=1;fontSize=14;fontColor=#004C99" parent="1" vertex="1">
          <mxGeometry x="278" y="258" width="50" height="50" as="geometry" />
        </mxCell>
        <mxCell id="2046" value="Mobile Services" style="verticalLabelPosition=bottom;html=1;verticalAlign=top;strokeColor=none;fillColor=#3399FF;shape=mxgraph.azure.mobile_services;dashed=1;fontSize=14;fontColor=#004C99" parent="1" vertex="1">
          <mxGeometry x="287" y="661" width="32.5" height="50" as="geometry" />
        </mxCell>
        <mxCell id="2047" value="Windows Azure Management Portal" style="text;html=1;strokeColor=none;fillColor=none;align=center;verticalAlign=middle;whiteSpace=wrap;overflow=hidden;dashed=1;fontSize=36;fontColor=#FFFFFF;fontFamily=Helvetica;fontStyle=1" parent="1" vertex="1">
          <mxGeometry x="40" y="50" width="880" height="50" as="geometry" />
        </mxCell>
        <mxCell id="2048" value="Business&amp;nbsp;&lt;div&gt;Analytics&lt;/div&gt;" style="rounded=1;whiteSpace=wrap;html=1;dashed=1;strokeColor=none;strokeWidth=2;fillColor=#FFFFFF;fontFamily=Helvetica;fontSize=14;fontColor=#FFB366;opacity=75;verticalAlign=top;fontStyle=1" parent="1" vertex="1">
          <mxGeometry x="410" y="190" width="140" height="260" as="geometry" />
        </mxCell>
        <mxCell id="2049" value="Data&lt;div&gt;Management&lt;/div&gt;" style="rounded=1;whiteSpace=wrap;html=1;dashed=1;strokeColor=none;strokeWidth=2;fillColor=#FFFFFF;fontFamily=Helvetica;fontSize=14;fontColor=#FFB366;opacity=75;verticalAlign=top;fontStyle=1" parent="1" vertex="1">
          <mxGeometry x="413" y="460" width="140" height="320" as="geometry" />
        </mxCell>
        <mxCell id="2050" value="SQL Reporting" style="verticalLabelPosition=bottom;html=1;verticalAlign=top;strokeColor=none;fillColor=#3399FF;shape=mxgraph.azure.sql_reporting;dashed=1;fontSize=14;fontColor=#004C99" parent="1" vertex="1">
          <mxGeometry x="460" y="258" width="40" height="50" as="geometry" />
        </mxCell>
        <mxCell id="2051" value="HDInsight" style="verticalLabelPosition=bottom;html=1;verticalAlign=top;strokeColor=none;fillColor=#3399FF;shape=mxgraph.azure.hdinsight;dashed=1;fontSize=14;fontColor=#004C99" parent="1" vertex="1">
          <mxGeometry x="458" y="355" width="50" height="50" as="geometry" />
        </mxCell>
        <mxCell id="2052" value="SQL Database" style="verticalLabelPosition=bottom;html=1;verticalAlign=top;strokeColor=none;fillColor=#3399FF;shape=mxgraph.azure.sql_database;dashed=1;fontFamily=Helvetica;fontSize=14;fontColor=#004C99" parent="1" vertex="1">
          <mxGeometry x="464" y="600" width="37.5" height="50" as="geometry" />
        </mxCell>
        <mxCell id="2053" value="Tables" style="verticalLabelPosition=bottom;html=1;verticalAlign=top;strokeColor=none;fillColor=#3399FF;shape=mxgraph.azure.storage_table;dashed=1;fontFamily=Helvetica;fontSize=14;fontColor=#004C99" parent="1" vertex="1">
          <mxGeometry x="458" y="689" width="50" height="45" as="geometry" />
        </mxCell>
        <mxCell id="2054" value="Blobs" style="verticalLabelPosition=bottom;html=1;verticalAlign=top;strokeColor=none;fillColor=#3399FF;shape=mxgraph.azure.storage_blob;dashed=1;fontFamily=Helvetica;fontSize=14;fontColor=#004C99" parent="1" vertex="1">
          <mxGeometry x="457" y="523" width="50" height="45" as="geometry" />
        </mxCell>
        <mxCell id="2055" value="Storage Management" style="rounded=1;whiteSpace=wrap;html=1;dashed=1;strokeColor=none;strokeWidth=2;fillColor=#FFFFFF;fontFamily=Helvetica;fontSize=14;fontColor=#FFB366;opacity=75;verticalAlign=top;fontStyle=1" parent="1" vertex="1">
          <mxGeometry x="594" y="240" width="140" height="280" as="geometry" />
        </mxCell>
        <mxCell id="2056" value="Storage Servers" style="verticalLabelPosition=bottom;html=1;verticalAlign=top;strokeColor=none;fillColor=#3399FF;shape=mxgraph.azure.server_rack;dashed=1;fontFamily=Helvetica;fontSize=14;fontColor=#004C99" parent="1" vertex="1">
          <mxGeometry x="639" y="316" width="50" height="50" as="geometry" />
        </mxCell>
        <mxCell id="2057" value="Database" style="verticalLabelPosition=bottom;html=1;verticalAlign=top;strokeColor=none;fillColor=#3399FF;shape=mxgraph.azure.database;dashed=1;fontFamily=Helvetica;fontSize=14;fontColor=#004C99" parent="1" vertex="1">
          <mxGeometry x="644" y="414" width="37.5" height="50" as="geometry" />
        </mxCell>
        <mxCell id="2058" value="Physical&lt;div&gt;Data Storage&lt;/div&gt;" style="verticalLabelPosition=bottom;html=1;verticalAlign=top;strokeColor=none;fillColor=#3399FF;shape=mxgraph.azure.vhd;dashed=1;fontFamily=Helvetica;fontSize=14;fontColor=#004C99" parent="1" vertex="1">
          <mxGeometry x="643" y="590" width="40" height="50" as="geometry" />
        </mxCell>
        <mxCell id="2059" value="Identity" style="rounded=1;whiteSpace=wrap;html=1;dashed=1;strokeColor=none;strokeWidth=2;fillColor=#FFFFFF;fontFamily=Helvetica;fontSize=14;fontColor=#FFB366;opacity=75;verticalAlign=top;fontStyle=1" parent="1" vertex="1">
          <mxGeometry x="773" y="196" width="140" height="134" as="geometry" />
        </mxCell>
        <mxCell id="2060" value="Windows Azure&amp;nbsp;&lt;div&gt;Active Directorry&lt;/div&gt;" style="verticalLabelPosition=bottom;html=1;verticalAlign=top;strokeColor=none;fillColor=#3399FF;shape=mxgraph.azure.azure_active_directory;dashed=1;fontFamily=Helvetica;fontSize=14;fontColor=#004C99" parent="1" vertex="1">
          <mxGeometry x="819" y="225" width="47.5" height="50" as="geometry" />
        </mxCell>
        <mxCell id="2061" value="Performance" style="rounded=1;whiteSpace=wrap;html=1;dashed=1;strokeColor=none;strokeWidth=2;fillColor=#FFFFFF;fontFamily=Helvetica;fontSize=14;fontColor=#FFB366;opacity=75;verticalAlign=top;fontStyle=1" parent="1" vertex="1">
          <mxGeometry x="774" y="341" width="140" height="199" as="geometry" />
        </mxCell>
        <mxCell id="2062" value="Caching" style="verticalLabelPosition=bottom;html=1;verticalAlign=top;strokeColor=none;fillColor=#3399FF;shape=mxgraph.azure.azure_cache;dashed=1;fontFamily=Helvetica;fontSize=14;fontColor=#004C99" parent="1" vertex="1">
          <mxGeometry x="821" y="376" width="45" height="50" as="geometry" />
        </mxCell>
        <mxCell id="2063" value="Content&amp;nbsp;&lt;div&gt;Delivery Network&lt;/div&gt;" style="verticalLabelPosition=bottom;html=1;verticalAlign=top;strokeColor=none;fillColor=#3399FF;shape=mxgraph.azure.content_delivery_network;dashed=1;fontFamily=Helvetica;fontSize=14;fontColor=#004C99" parent="1" vertex="1">
          <mxGeometry x="819" y="455" width="50" height="32.5" as="geometry" />
        </mxCell>
        <mxCell id="2064" value="Messaging" style="rounded=1;whiteSpace=wrap;html=1;dashed=1;strokeColor=none;strokeWidth=2;fillColor=#FFFFFF;fontFamily=Helvetica;fontSize=14;fontColor=#FFB366;opacity=75;verticalAlign=top;fontStyle=1" parent="1" vertex="1">
          <mxGeometry x="773" y="550" width="140" height="229" as="geometry" />
        </mxCell>
        <mxCell id="2065" value="Queues" style="verticalLabelPosition=bottom;html=1;verticalAlign=top;strokeColor=none;fillColor=#3399FF;shape=mxgraph.azure.queue_generic;dashed=1;fontFamily=Helvetica;fontSize=14;fontColor=#004C99" parent="1" vertex="1">
          <mxGeometry x="820" y="576" width="50" height="15" as="geometry" />
        </mxCell>
        <mxCell id="2066" value="Service Bus" style="verticalLabelPosition=bottom;html=1;verticalAlign=top;strokeColor=none;fillColor=#3399FF;shape=mxgraph.azure.service_bus;dashed=1;fontFamily=Helvetica;fontSize=14;fontColor=#004C99" parent="1" vertex="1">
          <mxGeometry x="824" y="624" width="45" height="50" as="geometry" />
        </mxCell>
        <mxCell id="2067" value="Media Services" style="verticalLabelPosition=bottom;html=1;verticalAlign=top;strokeColor=none;fillColor=#3399FF;shape=mxgraph.azure.media_service;dashed=1;fontFamily=Helvetica;fontSize=14;fontColor=#004C99" parent="1" vertex="1">
          <mxGeometry x="821" y="703" width="45" height="50" as="geometry" />
        </mxCell>
        <mxCell id="2068" value="Cloud&lt;div&gt;Services&lt;/div&gt;" style="rounded=1;whiteSpace=wrap;html=1;dashed=1;strokeColor=none;strokeWidth=2;fillColor=#FFFFFF;fontFamily=Helvetica;fontSize=14;fontColor=#FFB366;opacity=75;verticalAlign=top;fontStyle=1" parent="1" vertex="1">
          <mxGeometry x="233" y="397" width="140" height="223" as="geometry" />
        </mxCell>
        <mxCell id="2069" value="Cloud" style="verticalLabelPosition=bottom;html=1;verticalAlign=top;strokeColor=none;fillColor=#3399FF;shape=mxgraph.azure.cloud;dashed=1;fontSize=14;fontColor=#004C99" parent="1" vertex="1">
          <mxGeometry x="278" y="449" width="50" height="32.5" as="geometry" />
        </mxCell>
        <mxCell id="2070" value="Virtual Machine" style="verticalLabelPosition=bottom;html=1;verticalAlign=top;strokeColor=none;fillColor=#3399FF;shape=mxgraph.azure.virtual_machine;dashed=1;fontSize=14;fontColor=#004C99" parent="1" vertex="1">
          <mxGeometry x="278" y="536" width="50" height="40" as="geometry" />
        </mxCell>
        <mxCell id="2075" value="" style="arrow;html=1;endArrow=block;endFill=1;strokeColor=none;strokeWidth=4;fontFamily=Helvetica;fontSize=36;fontColor=#FFB366;fillColor=#FFB366;" parent="1" edge="1">
          <mxGeometry width="100" height="100" relative="1" as="geometry">
            <mxPoint x="167" y="283" as="sourcePoint" />
            <mxPoint x="247" y="283" as="targetPoint" />
          </mxGeometry>
        </mxCell>
        <mxCell id="2076" value="" style="arrow;html=1;endArrow=block;endFill=1;strokeColor=none;strokeWidth=4;fontFamily=Helvetica;fontSize=36;fontColor=#FFB366;fillColor=#FFB366;opacity=100" parent="1" edge="1">
          <mxGeometry width="100" height="100" relative="1" as="geometry">
            <mxPoint x="347" y="283" as="sourcePoint" />
            <mxPoint x="427" y="283" as="targetPoint" />
          </mxGeometry>
        </mxCell>
        <mxCell id="2077" value="" style="arrow;html=1;endArrow=block;endFill=1;strokeColor=none;strokeWidth=4;fontFamily=Helvetica;fontSize=36;fontColor=#FFB366;fillColor=#FFB366;" parent="1" edge="1">
          <mxGeometry width="100" height="100" relative="1" as="geometry">
            <mxPoint x="527" y="360" as="sourcePoint" />
            <mxPoint x="607" y="360" as="targetPoint" />
          </mxGeometry>
        </mxCell>
        <mxCell id="2078" value="" style="arrow;html=1;endArrow=block;endFill=1;strokeColor=none;strokeWidth=4;fontFamily=Helvetica;fontSize=36;fontColor=#FFB366;fillColor=#FFB366;" parent="1" edge="1">
          <mxGeometry width="100" height="100" relative="1" as="geometry">
            <mxPoint x="714" y="426" as="sourcePoint" />
            <mxPoint x="794" y="426" as="targetPoint" />
          </mxGeometry>
        </mxCell>
        <mxCell id="2079" value="" style="arrow;html=1;endArrow=block;endFill=1;strokeColor=none;strokeWidth=4;fontFamily=Helvetica;fontSize=36;fontColor=#FFB366;fillColor=#FFB366;" parent="1" edge="1">
          <mxGeometry width="100" height="100" relative="1" as="geometry">
            <mxPoint x="714" y="270" as="sourcePoint" />
            <mxPoint x="794" y="270" as="targetPoint" />
          </mxGeometry>
        </mxCell>
        <mxCell id="2082" value="" style="arrow;html=1;endArrow=block;endFill=1;strokeColor=none;strokeWidth=4;fontFamily=Helvetica;fontSize=36;fontColor=#FFB366;fillColor=#FFB366;" parent="1" edge="1">
          <mxGeometry width="100" height="100" relative="1" as="geometry">
            <mxPoint x="707" y="639" as="sourcePoint" />
            <mxPoint x="787" y="639" as="targetPoint" />
          </mxGeometry>
        </mxCell>
        <mxCell id="2083" value="" style="arrow;html=1;endArrow=block;endFill=1;strokeColor=none;strokeWidth=4;fontFamily=Helvetica;fontSize=36;fontColor=#FFB366;fillColor=#FFB366;" parent="1" edge="1">
          <mxGeometry width="100" height="100" relative="1" as="geometry">
            <mxPoint x="534" y="624" as="sourcePoint" />
            <mxPoint x="614" y="624" as="targetPoint" />
          </mxGeometry>
        </mxCell>
        <mxCell id="2084" value="" style="arrow;html=1;endArrow=block;endFill=1;strokeColor=none;strokeWidth=4;fontFamily=Helvetica;fontSize=36;fontColor=#FFB366;fillColor=#FFB366;" parent="1" edge="1">
          <mxGeometry width="100" height="100" relative="1" as="geometry">
            <mxPoint x="347" y="536" as="sourcePoint" />
            <mxPoint x="427" y="536" as="targetPoint" />
          </mxGeometry>
        </mxCell>
        <mxCell id="2085" value="" style="arrow;html=1;endArrow=block;endFill=1;strokeColor=none;strokeWidth=4;fontFamily=Helvetica;fontSize=36;fontColor=#FFB366;fillColor=#FFB366;" parent="1" edge="1">
          <mxGeometry width="100" height="100" relative="1" as="geometry">
            <mxPoint x="174" y="688" as="sourcePoint" />
            <mxPoint x="254" y="688" as="targetPoint" />
          </mxGeometry>
        </mxCell>
      </root>
    </mxGraphModel>
  </diagram>
  <diagram id="IH98GodnJjiZcpMsWUpl" name="多环境">
    <mxGraphModel dx="1186" dy="796" grid="0" gridSize="10" guides="1" tooltips="1" connect="1" arrows="1" fold="1" page="0" pageScale="1" pageWidth="827" pageHeight="1169" background="#353743" math="0" shadow="0">
      <root>
        <mxCell id="8yY1ew1iVUyGV_3vnYZS-0" />
        <mxCell id="8yY1ew1iVUyGV_3vnYZS-1" parent="8yY1ew1iVUyGV_3vnYZS-0" />
        <mxCell id="8yY1ew1iVUyGV_3vnYZS-2" value="" style="rounded=0;whiteSpace=wrap;html=1;dashed=1;strokeColor=none;strokeWidth=2;fontFamily=Verdana;fontSize=12;fontColor=#00BEF2;fillColor=#525466;" vertex="1" parent="8yY1ew1iVUyGV_3vnYZS-1">
          <mxGeometry x="40" y="113" width="440" height="555" as="geometry" />
        </mxCell>
        <mxCell id="8yY1ew1iVUyGV_3vnYZS-3" value="" style="rounded=0;whiteSpace=wrap;html=1;dashed=1;strokeColor=none;strokeWidth=2;fontFamily=Verdana;fontSize=12;fontColor=#00BEF2;fillColor=#525466;" vertex="1" parent="8yY1ew1iVUyGV_3vnYZS-1">
          <mxGeometry x="530.5" y="115" width="360" height="553" as="geometry" />
        </mxCell>
        <mxCell id="8yY1ew1iVUyGV_3vnYZS-4" value="手机" style="verticalLabelPosition=bottom;html=1;verticalAlign=top;strokeColor=none;fillColor=#3399FF;shape=mxgraph.azure.mobile_services;dashed=1;fontSize=14;fontColor=#FFFFFF;" vertex="1" parent="8yY1ew1iVUyGV_3vnYZS-1">
          <mxGeometry x="571.5" y="479" width="32.5" height="50" as="geometry" />
        </mxCell>
        <mxCell id="8yY1ew1iVUyGV_3vnYZS-5" value="HCMS多环境" style="text;html=1;fillColor=none;align=center;verticalAlign=middle;whiteSpace=wrap;overflow=hidden;dashed=1;fontSize=30;fontColor=#FFFFFF;fontFamily=Helvetica;fontStyle=1;strokeColor=#99CCFF;" vertex="1" parent="8yY1ew1iVUyGV_3vnYZS-1">
          <mxGeometry x="41.5" y="40" width="847" height="50" as="geometry" />
        </mxCell>
        <mxCell id="8yY1ew1iVUyGV_3vnYZS-6" value="内容模型" style="whiteSpace=wrap;html=1;dashed=1;strokeColor=none;strokeWidth=2;fontFamily=Helvetica;fontSize=15;fontColor=#FFFFFF;fontStyle=1;fillColor=#7176B9;" vertex="1" parent="8yY1ew1iVUyGV_3vnYZS-1">
          <mxGeometry x="67" y="281" width="170" height="50" as="geometry" />
        </mxCell>
        <mxCell id="8yY1ew1iVUyGV_3vnYZS-7" value="PC" style="verticalAlign=top;verticalLabelPosition=bottom;labelPosition=center;align=center;html=1;outlineConnect=0;fillColor=#CCCCCC;strokeColor=#6881B3;gradientColor=none;gradientDirection=north;strokeWidth=2;shape=mxgraph.networks.pc;rounded=0;fontColor=#FFFFFF;" vertex="1" parent="8yY1ew1iVUyGV_3vnYZS-1">
          <mxGeometry x="791.5" y="479" width="70" height="50" as="geometry" />
        </mxCell>
        <mxCell id="8yY1ew1iVUyGV_3vnYZS-8" value="小程序" style="shape=image;html=1;verticalAlign=top;verticalLabelPosition=bottom;labelBackgroundColor=none;imageAspect=0;aspect=fixed;image=https://cdn4.iconfinder.com/data/icons/logos-and-brands/512/371_Wechat_logo-128.png;rounded=0;fillColor=#3399FF;fontColor=#FFFFFF;" vertex="1" parent="8yY1ew1iVUyGV_3vnYZS-1">
          <mxGeometry x="645.5" y="482" width="44" height="44" as="geometry" />
        </mxCell>
        <mxCell id="8yY1ew1iVUyGV_3vnYZS-9" value="小程序&lt;br&gt;" style="shape=image;html=1;verticalAlign=top;verticalLabelPosition=bottom;labelBackgroundColor=none;imageAspect=0;aspect=fixed;image=https://cdn4.iconfinder.com/data/icons/logos-and-brands/512/13_Alipay_logo_logos-128.png;rounded=0;fillColor=#3399FF;fontColor=#FFFFFF;" vertex="1" parent="8yY1ew1iVUyGV_3vnYZS-1">
          <mxGeometry x="727.5" y="484.5" width="39" height="39" as="geometry" />
        </mxCell>
        <mxCell id="8yY1ew1iVUyGV_3vnYZS-10" value="功能管理" style="whiteSpace=wrap;html=1;dashed=1;strokeColor=none;strokeWidth=2;fontFamily=Helvetica;fontSize=15;fontColor=#FFFFFF;fontStyle=1;fillColor=#7176B9;" vertex="1" parent="8yY1ew1iVUyGV_3vnYZS-1">
          <mxGeometry x="283" y="281" width="170" height="50" as="geometry" />
        </mxCell>
        <mxCell id="8yY1ew1iVUyGV_3vnYZS-11" style="edgeStyle=orthogonalEdgeStyle;curved=1;orthogonalLoop=1;jettySize=auto;html=1;exitX=0.5;exitY=1;exitDx=0;exitDy=0;labelBackgroundColor=none;strokeWidth=4;fontSize=15;fontColor=#FFFFFF;" edge="1" parent="8yY1ew1iVUyGV_3vnYZS-1" source="8yY1ew1iVUyGV_3vnYZS-10" target="8yY1ew1iVUyGV_3vnYZS-10">
          <mxGeometry relative="1" as="geometry" />
        </mxCell>
        <mxCell id="8yY1ew1iVUyGV_3vnYZS-12" value="发布测试" style="whiteSpace=wrap;html=1;dashed=1;strokeColor=none;strokeWidth=2;fontFamily=Helvetica;fontSize=15;fontColor=#FFFFFF;fontStyle=1;fillColor=#7176B9;" vertex="1" parent="8yY1ew1iVUyGV_3vnYZS-1">
          <mxGeometry x="67" y="378" width="170" height="50" as="geometry" />
        </mxCell>
        <mxCell id="8yY1ew1iVUyGV_3vnYZS-13" value="测试" style="whiteSpace=wrap;html=1;dashed=1;strokeColor=none;strokeWidth=2;fontFamily=Helvetica;fontSize=15;fontColor=#FFFFFF;fontStyle=1;fillColor=#7176B9;" vertex="1" parent="8yY1ew1iVUyGV_3vnYZS-1">
          <mxGeometry x="283" y="378" width="170" height="50" as="geometry" />
        </mxCell>
        <mxCell id="8yY1ew1iVUyGV_3vnYZS-14" style="edgeStyle=orthogonalEdgeStyle;curved=1;orthogonalLoop=1;jettySize=auto;html=1;exitX=0.5;exitY=1;exitDx=0;exitDy=0;labelBackgroundColor=none;strokeWidth=4;fontSize=15;fontColor=#FFFFFF;" edge="1" parent="8yY1ew1iVUyGV_3vnYZS-1" source="8yY1ew1iVUyGV_3vnYZS-13" target="8yY1ew1iVUyGV_3vnYZS-13">
          <mxGeometry relative="1" as="geometry" />
        </mxCell>
        <mxCell id="8yY1ew1iVUyGV_3vnYZS-15" value="发布审核" style="whiteSpace=wrap;html=1;dashed=1;strokeColor=none;strokeWidth=2;fontFamily=Helvetica;fontSize=15;fontColor=#FFFFFF;fontStyle=1;fillColor=#7176B9;" vertex="1" parent="8yY1ew1iVUyGV_3vnYZS-1">
          <mxGeometry x="67" y="474" width="170" height="50" as="geometry" />
        </mxCell>
        <mxCell id="8yY1ew1iVUyGV_3vnYZS-16" value="审核" style="whiteSpace=wrap;html=1;dashed=1;strokeColor=none;strokeWidth=2;fontFamily=Helvetica;fontSize=15;fontColor=#FFFFFF;fontStyle=1;fillColor=#7176B9;" vertex="1" parent="8yY1ew1iVUyGV_3vnYZS-1">
          <mxGeometry x="279" y="474" width="170" height="50" as="geometry" />
        </mxCell>
        <mxCell id="8yY1ew1iVUyGV_3vnYZS-17" style="edgeStyle=orthogonalEdgeStyle;curved=1;orthogonalLoop=1;jettySize=auto;html=1;exitX=0.5;exitY=1;exitDx=0;exitDy=0;labelBackgroundColor=none;strokeWidth=4;fontSize=15;fontColor=#FFFFFF;" edge="1" parent="8yY1ew1iVUyGV_3vnYZS-1" source="8yY1ew1iVUyGV_3vnYZS-16" target="8yY1ew1iVUyGV_3vnYZS-16">
          <mxGeometry relative="1" as="geometry" />
        </mxCell>
        <mxCell id="8yY1ew1iVUyGV_3vnYZS-18" value="正式发布" style="whiteSpace=wrap;html=1;dashed=1;strokeColor=none;strokeWidth=2;fontFamily=Helvetica;fontSize=15;fontColor=#FFFFFF;fontStyle=1;fillColor=#7176B9;" vertex="1" parent="8yY1ew1iVUyGV_3vnYZS-1">
          <mxGeometry x="67" y="571" width="170" height="50" as="geometry" />
        </mxCell>
        <mxCell id="8yY1ew1iVUyGV_3vnYZS-19" style="edgeStyle=orthogonalEdgeStyle;curved=1;orthogonalLoop=1;jettySize=auto;html=1;exitX=0.5;exitY=1;exitDx=0;exitDy=0;labelBackgroundColor=none;strokeWidth=4;fontSize=15;fontColor=#FFFFFF;" edge="1" parent="8yY1ew1iVUyGV_3vnYZS-1">
          <mxGeometry relative="1" as="geometry">
            <mxPoint x="395" y="620" as="sourcePoint" />
            <mxPoint x="395" y="620" as="targetPoint" />
          </mxGeometry>
        </mxCell>
        <mxCell id="8yY1ew1iVUyGV_3vnYZS-20" value="内网" style="text;html=1;strokeColor=none;fillColor=none;align=center;verticalAlign=middle;whiteSpace=wrap;rounded=0;labelBackgroundColor=none;fontSize=28;fontColor=#FFFFFF;" vertex="1" parent="8yY1ew1iVUyGV_3vnYZS-1">
          <mxGeometry x="61" y="130" width="80" height="47" as="geometry" />
        </mxCell>
        <mxCell id="8yY1ew1iVUyGV_3vnYZS-21" value="外网" style="text;html=1;strokeColor=none;fillColor=none;align=center;verticalAlign=middle;whiteSpace=wrap;rounded=0;labelBackgroundColor=none;fontSize=28;fontColor=#FFFFFF;" vertex="1" parent="8yY1ew1iVUyGV_3vnYZS-1">
          <mxGeometry x="543.5" y="126" width="80" height="47" as="geometry" />
        </mxCell>
        <mxCell id="8yY1ew1iVUyGV_3vnYZS-22" value="" style="endArrow=none;dashed=1;html=1;labelBackgroundColor=none;strokeWidth=4;fontSize=28;fontColor=#FFFFFF;strokeColor=#7176B9;" edge="1" parent="8yY1ew1iVUyGV_3vnYZS-1">
          <mxGeometry width="50" height="50" relative="1" as="geometry">
            <mxPoint x="505.5" y="662" as="sourcePoint" />
            <mxPoint x="505.5" y="119" as="targetPoint" />
          </mxGeometry>
        </mxCell>
        <mxCell id="8yY1ew1iVUyGV_3vnYZS-23" value="" style="verticalLabelPosition=bottom;html=1;verticalAlign=top;align=center;strokeColor=none;shape=mxgraph.azure.sql_database;rounded=0;fillColor=#3399FF;" vertex="1" parent="8yY1ew1iVUyGV_3vnYZS-1">
          <mxGeometry x="671.5" y="146" width="84" height="105" as="geometry" />
        </mxCell>
        <mxCell id="8yY1ew1iVUyGV_3vnYZS-24" value="" style="verticalLabelPosition=bottom;html=1;verticalAlign=top;align=center;strokeColor=none;shape=mxgraph.azure.sql_database;rounded=0;fillColor=#3399FF;" vertex="1" parent="8yY1ew1iVUyGV_3vnYZS-1">
          <mxGeometry x="224" y="144" width="84" height="105" as="geometry" />
        </mxCell>
        <mxCell id="8yY1ew1iVUyGV_3vnYZS-25" value="API" style="html=1;shadow=0;dashed=0;align=center;verticalAlign=middle;shape=mxgraph.arrows2.arrow;dy=0.6;dx=40;notch=15;rounded=0;labelBackgroundColor=none;fontSize=20;fontColor=#FFFFFF;direction=south;strokeColor=none;fillColor=#7176B9;" vertex="1" parent="8yY1ew1iVUyGV_3vnYZS-1">
          <mxGeometry x="662" y="295" width="103" height="125" as="geometry" />
        </mxCell>
      </root>
    </mxGraphModel>
  </diagram>
  <diagram id="AGTmLbVEwhTVHdfsuJQg" name="审核流程">
    <mxGraphModel dx="1586" dy="796" grid="0" gridSize="10" guides="1" tooltips="1" connect="1" arrows="1" fold="1" page="0" pageScale="1" pageWidth="827" pageHeight="1169" background="#353743" math="0" shadow="0">
      <root>
        <mxCell id="H9HIvyehpdawFJ4Wp84v-0" />
        <mxCell id="H9HIvyehpdawFJ4Wp84v-1" parent="H9HIvyehpdawFJ4Wp84v-0" />
        <mxCell id="VCgROHbzmQnPvIE1pcCq-0" value="" style="rounded=0;whiteSpace=wrap;html=1;dashed=1;strokeColor=none;strokeWidth=2;fontFamily=Verdana;fontSize=12;fontColor=#00BEF2;fillColor=#525466;" vertex="1" parent="H9HIvyehpdawFJ4Wp84v-1">
          <mxGeometry x="29" y="151" width="217" height="519" as="geometry" />
        </mxCell>
        <mxCell id="eseDV-0NWVlALmzvI1Uo-0" value="项目管理" style="text;html=1;fillColor=none;align=center;verticalAlign=middle;whiteSpace=wrap;overflow=hidden;dashed=1;fontSize=30;fontColor=#FFFFFF;fontFamily=Helvetica;fontStyle=1;strokeColor=#99CCFF;" vertex="1" parent="H9HIvyehpdawFJ4Wp84v-1">
          <mxGeometry x="29" y="70" width="215" height="50" as="geometry" />
        </mxCell>
        <mxCell id="eseDV-0NWVlALmzvI1Uo-1" value="" style="rounded=0;whiteSpace=wrap;html=1;dashed=1;strokeColor=none;strokeWidth=2;fontFamily=Verdana;fontSize=12;fontColor=#00BEF2;fillColor=#525466;" vertex="1" parent="H9HIvyehpdawFJ4Wp84v-1">
          <mxGeometry x="282" y="151" width="217" height="521" as="geometry" />
        </mxCell>
        <mxCell id="eseDV-0NWVlALmzvI1Uo-2" value="测试" style="text;html=1;fillColor=none;align=center;verticalAlign=middle;whiteSpace=wrap;overflow=hidden;dashed=1;fontSize=30;fontColor=#FFFFFF;fontFamily=Helvetica;fontStyle=1;strokeColor=#99CCFF;" vertex="1" parent="H9HIvyehpdawFJ4Wp84v-1">
          <mxGeometry x="282" y="70" width="215" height="50" as="geometry" />
        </mxCell>
        <mxCell id="eseDV-0NWVlALmzvI1Uo-3" value="" style="rounded=0;whiteSpace=wrap;html=1;dashed=1;strokeColor=none;strokeWidth=2;fontFamily=Verdana;fontSize=12;fontColor=#00BEF2;fillColor=#525466;" vertex="1" parent="H9HIvyehpdawFJ4Wp84v-1">
          <mxGeometry x="-228" y="151" width="217" height="520" as="geometry" />
        </mxCell>
        <mxCell id="eseDV-0NWVlALmzvI1Uo-4" value="审核" style="text;html=1;fillColor=none;align=center;verticalAlign=middle;whiteSpace=wrap;overflow=hidden;dashed=1;fontSize=30;fontColor=#FFFFFF;fontFamily=Helvetica;fontStyle=1;strokeColor=#99CCFF;" vertex="1" parent="H9HIvyehpdawFJ4Wp84v-1">
          <mxGeometry x="-228" y="70" width="215" height="50" as="geometry" />
        </mxCell>
        <mxCell id="jR_iAiSXX3ViJw8WcmEt-0" value="内容模型" style="whiteSpace=wrap;html=1;dashed=1;strokeColor=none;strokeWidth=2;fontFamily=Helvetica;fontSize=15;fontColor=#FFFFFF;fontStyle=1;fillColor=#7176B9;" vertex="1" parent="H9HIvyehpdawFJ4Wp84v-1">
          <mxGeometry x="52.5" y="174" width="170" height="50" as="geometry" />
        </mxCell>
        <mxCell id="_yxDPZeMNhEqnfOr6vDJ-0" value="功能管理" style="whiteSpace=wrap;html=1;dashed=1;strokeColor=none;strokeWidth=2;fontFamily=Helvetica;fontSize=15;fontColor=#FFFFFF;fontStyle=1;fillColor=#7176B9;" vertex="1" parent="H9HIvyehpdawFJ4Wp84v-1">
          <mxGeometry x="51.5" y="251" width="170" height="50" as="geometry" />
        </mxCell>
        <mxCell id="jexqZEo2QSrobipQWvf1-0" value="发布测试" style="whiteSpace=wrap;html=1;dashed=1;strokeColor=none;strokeWidth=2;fontFamily=Helvetica;fontSize=15;fontColor=#FFFFFF;fontStyle=1;fillColor=#7176B9;" vertex="1" parent="H9HIvyehpdawFJ4Wp84v-1">
          <mxGeometry x="49" y="322" width="170" height="50" as="geometry" />
        </mxCell>
        <mxCell id="1dAEY-5j7isZFj3obmMp-0" value="测试" style="whiteSpace=wrap;html=1;dashed=1;strokeColor=none;strokeWidth=2;fontFamily=Helvetica;fontSize=15;fontColor=#FFFFFF;fontStyle=1;fillColor=#7176B9;" vertex="1" parent="H9HIvyehpdawFJ4Wp84v-1">
          <mxGeometry x="308" y="389" width="170" height="50" as="geometry" />
        </mxCell>
        <mxCell id="1dAEY-5j7isZFj3obmMp-2" value="发布审核" style="whiteSpace=wrap;html=1;dashed=1;strokeColor=none;strokeWidth=2;fontFamily=Helvetica;fontSize=15;fontColor=#FFFFFF;fontStyle=1;fillColor=#7176B9;" vertex="1" parent="H9HIvyehpdawFJ4Wp84v-1">
          <mxGeometry x="50.25" y="457" width="170" height="50" as="geometry" />
        </mxCell>
        <mxCell id="1dAEY-5j7isZFj3obmMp-3" value="审核" style="whiteSpace=wrap;html=1;dashed=1;strokeColor=none;strokeWidth=2;fontFamily=Helvetica;fontSize=15;fontColor=#FFFFFF;fontStyle=1;fillColor=#7176B9;" vertex="1" parent="H9HIvyehpdawFJ4Wp84v-1">
          <mxGeometry x="-204.5" y="527" width="170" height="50" as="geometry" />
        </mxCell>
        <mxCell id="1dAEY-5j7isZFj3obmMp-4" value="正式发布" style="whiteSpace=wrap;html=1;dashed=1;strokeColor=none;strokeWidth=2;fontFamily=Helvetica;fontSize=15;fontColor=#FFFFFF;fontStyle=1;fillColor=#7176B9;" vertex="1" parent="H9HIvyehpdawFJ4Wp84v-1">
          <mxGeometry x="50.25" y="584" width="170" height="50" as="geometry" />
        </mxCell>
        <mxCell id="1dAEY-5j7isZFj3obmMp-8" value="" style="shape=flexArrow;endArrow=classic;html=1;strokeColor=#FFFFFF;strokeWidth=2;fontSize=30;width=9;endSize=6.67;" edge="1" parent="H9HIvyehpdawFJ4Wp84v-1">
          <mxGeometry width="50" height="50" relative="1" as="geometry">
            <mxPoint x="-23" y="608.5" as="sourcePoint" />
            <mxPoint x="43" y="608.5" as="targetPoint" />
          </mxGeometry>
        </mxCell>
        <mxCell id="1dAEY-5j7isZFj3obmMp-12" value="" style="shape=flexArrow;endArrow=classic;html=1;strokeColor=#FFFFFF;strokeWidth=2;fontSize=30;width=9;endSize=6.67;" edge="1" parent="H9HIvyehpdawFJ4Wp84v-1">
          <mxGeometry width="50" height="50" relative="1" as="geometry">
            <mxPoint x="233" y="346.5" as="sourcePoint" />
            <mxPoint x="299" y="346.5" as="targetPoint" />
          </mxGeometry>
        </mxCell>
        <mxCell id="1dAEY-5j7isZFj3obmMp-16" value="" style="shape=flexArrow;endArrow=classic;html=1;strokeColor=#FFFFFF;strokeWidth=2;fontSize=30;width=9;endSize=6.67;" edge="1" parent="H9HIvyehpdawFJ4Wp84v-1">
          <mxGeometry width="50" height="50" relative="1" as="geometry">
            <mxPoint x="40" y="481.5" as="sourcePoint" />
            <mxPoint x="-26" y="481.5" as="targetPoint" />
          </mxGeometry>
        </mxCell>
        <mxCell id="1dAEY-5j7isZFj3obmMp-17" value="" style="shape=flexArrow;endArrow=classic;html=1;strokeColor=#FFFFFF;strokeWidth=2;fontSize=30;width=9;endSize=6.67;" edge="1" parent="H9HIvyehpdawFJ4Wp84v-1">
          <mxGeometry width="50" height="50" relative="1" as="geometry">
            <mxPoint x="295" y="481.5" as="sourcePoint" />
            <mxPoint x="229" y="481.5" as="targetPoint" />
          </mxGeometry>
        </mxCell>
      </root>
    </mxGraphModel>
  </diagram>
  <diagram id="yVZ2ei6iSQOBzKIry6mu" name="权限管理">
    <mxGraphModel dx="1186" dy="796" grid="1" gridSize="10" guides="1" tooltips="1" connect="1" arrows="1" fold="1" page="1" pageScale="1" pageWidth="827" pageHeight="1169" math="0" shadow="0">
      <root>
        <mxCell id="GxxmK9Tl_hf9PtyCDC_K-0" />
        <mxCell id="GxxmK9Tl_hf9PtyCDC_K-1" parent="GxxmK9Tl_hf9PtyCDC_K-0" />
      </root>
    </mxGraphModel>
  </diagram>
</mxfile>
